<svg width="24" height="25" viewBox="0 0 24 25" fill="none" xmlns="http://www.w3.org/2000/svg">
<path d="M3 12.5C3 8.75027 3 6.8754 3.95491 5.56107C4.26331 5.1366 4.6366 4.76331 5.06107 4.45491C6.3754 3.5 8.25027 3.5 12 3.5C15.7497 3.5 17.6246 3.5 18.9389 4.45491C19.3634 4.76331 19.7367 5.1366 20.0451 5.56107C21 6.8754 21 8.75027 21 12.5C21 16.2497 21 18.1246 20.0451 19.4389C19.7367 19.8634 19.3634 20.2367 18.9389 20.5451C17.6246 21.5 15.7497 21.5 12 21.5H3V12.5Z" stroke="#4A4A5B" stroke-width="1.5" stroke-linejoin="round"/>
<path d="M7.75 14.75H13.25" stroke="#4A4A5B" stroke-width="1.5" stroke-linecap="round"/>
<path d="M7.75 10.75H16.25" stroke="#4A4A5B" stroke-width="1.5" stroke-linecap="round"/>
</svg>
