<svg width="25" height="24" viewBox="0 0 25 24" fill="none" xmlns="http://www.w3.org/2000/svg">
<path fill-rule="evenodd" clip-rule="evenodd" d="M10.7 19.2C10.7 20.1941 11.5059 21 12.5 21C13.4941 21 14.3 20.1941 14.3 19.2V18.0391C14.719 17.9144 15.1197 17.7473 15.4972 17.5428L16.3184 18.364C17.0213 19.0669 18.161 19.0669 18.864 18.364C19.5669 17.661 19.5669 16.5213 18.864 15.8184L18.0428 14.9972C18.2473 14.6197 18.4144 14.219 18.5391 13.8H19.7C20.6941 13.8 21.5 12.9941 21.5 12C21.5 11.0059 20.6941 10.2 19.7 10.2H18.5391C18.4144 9.78102 18.2473 9.3803 18.0428 9.00282L18.864 8.18163C19.5669 7.47869 19.5669 6.33899 18.864 5.63604C18.161 4.9331 17.0213 4.9331 16.3184 5.63604L15.4972 6.45724C15.1197 6.2527 14.719 6.08559 14.3 5.96089V4.8C14.3 3.80589 13.4941 3 12.5 3C11.5059 3 10.7 3.80589 10.7 4.8V5.96089C10.281 6.08559 9.8803 6.2527 9.50282 6.45724L8.68163 5.63605C7.97869 4.9331 6.83899 4.9331 6.13604 5.63605C5.4331 6.33899 5.4331 7.47869 6.13604 8.18163L6.95724 9.00283C6.7527 9.3803 6.58559 9.78102 6.46089 10.2H5.3C4.30589 10.2 3.5 11.0059 3.5 12C3.5 12.9941 4.30589 13.8 5.3 13.8H6.46089C6.58559 14.219 6.7527 14.6197 6.95724 14.9972L6.13603 15.8184C5.43309 16.5213 5.43309 17.661 6.13603 18.364C6.83897 19.0669 7.97867 19.0669 8.68161 18.364L9.50282 17.5428C9.88029 17.7473 10.281 17.9144 10.7 18.0391V19.2ZM12.5 14.7C13.9912 14.7 15.2 13.4912 15.2 12C15.2 10.5088 13.9912 9.29999 12.5 9.29999C11.0088 9.29999 9.79999 10.5088 9.79999 12C9.79999 13.4912 11.0088 14.7 12.5 14.7Z" fill="#4A4A5B"/>
</svg>
