<svg width="25" height="25" viewBox="0 0 25 25" fill="none" xmlns="http://www.w3.org/2000/svg">
<path d="M18.5 5.25H6.5C4.70507 5.25 3.25 6.70507 3.25 8.5V18.5C3.25 20.2949 4.70507 21.75 6.5 21.75H18.5C20.2949 21.75 21.75 20.2949 21.75 18.5V8.5C21.75 6.70507 20.2949 5.25 18.5 5.25Z" stroke="#4A4A5B" stroke-width="1.5"/>
<path d="M7.25 3.25V6.75" stroke="#4A4A5B" stroke-width="1.5" stroke-linecap="round"/>
<path d="M2.5 16.75H22.5" stroke="#4A4A5B" stroke-width="1.5"/>
<path d="M18.25 3.25V6.75" stroke="#4A4A5B" stroke-width="1.5" stroke-linecap="round"/>
<path d="M10.4998 14C10.2263 14 9.99951 13.7518 9.99951 13.4525V10.9776L9.87278 11.1309C9.68602 11.3572 9.37254 11.3718 9.16577 11.1747C8.959 10.9703 8.94566 10.6271 9.12575 10.4008L10.1262 9.18163C10.2663 9.01372 10.4864 8.9553 10.6798 9.03561C10.8733 9.11592 11 9.32034 11 9.54666V13.4525C11 13.7591 10.7799 14 10.4998 14Z" fill="#4A4A5B"/>
<path d="M14 14C12.8945 14 12 13.1022 12 11.9927V11.0073C12 9.89781 12.8945 9 14 9C15.1055 9 16 9.89781 16 11.0073V11.9927C16 13.1022 15.1055 14 14 14ZM14 10.1022C13.4982 10.1022 13.0909 10.511 13.0909 11.0146V12C13.0909 12.5037 13.4982 12.9124 14 12.9124C14.5018 12.9124 14.9091 12.5037 14.9091 12V11.0146C14.9091 10.511 14.5018 10.1022 14 10.1022Z" fill="#4A4A5B"/>
</svg>
